<?xml version="1.0" standalone="no"?><!DOCTYPE svg PUBLIC "-//W3C//DTD SVG 1.1//EN" "http://www.w3.org/Graphics/SVG/1.1/DTD/svg11.dtd"><svg t="1503122604586" class="icon" style="" viewBox="0 0 1024 1024" version="1.1" xmlns="http://www.w3.org/2000/svg" p-id="996" xmlns:xlink="http://www.w3.org/1999/xlink" width="200" height="200"><defs><style type="text/css"></style></defs><path d="M886.1 721.9c-5.4-67.7-41.1-143.1-55.7-181l-37.7-97.5c-1.2-40.6 10.8-133.8-52.1-250.5C677.5 76.2 551.1 65.7 527.7 64.5c-23.4-1.2-169.6-2.4-241.5 124.6s-52.5 254.3-52.5 254.3l-40.2 98.2s-18.7 44.8-34.9 99.3-32.4 140.2-16.2 157.6c16.2 17.4 74.9-79.7 80.3-88.7 0 0 4.2 46.4 15.3 70.7 8.9 19.4 30.2 67.9 73.3 105.9-20.7 6.7-70.4 24.6-77.7 43.2-9.2 23.6 7.2 26.4 35.2 28 28 1.6 162.2 5.2 226.5-3.8 0.7-0.1 1.3-0.2 2-0.3 6.3 0.2 12.2 0.3 17.9 0.3 3.6 0 7.8-0.1 12.3-0.2 0.4 0.1 0.9 0.1 1.3 0.2 64.3 9 198.6 5.4 226.5 3.8 28-1.6 44.3-4.4 35.2-28-7.4-18.9-58.5-37-78.6-43.4 6.3-5.6 12.4-11.6 18.4-18.1 72.5-79.7 66.5-130 69.5-158.8 0 0 61.1 88.1 74.3 91.1 13.2 3 17.3-10.8 12-78.5z" p-id="997" fill="#1296db"></path></svg>